<svg width="805" height="186" viewBox="0 0 805 186" fill="none" xmlns="http://www.w3.org/2000/svg">
<path d="M139.266 104.166C141.935 100.999 146.667 100.596 149.834 103.266C153.001 105.935 153.404 110.667 150.734 113.834L121.234 148.834C119.894 150.424 117.954 151.385 115.878 151.49C113.931 151.588 112.028 150.926 110.567 149.65L110.281 149.387L94.2812 133.887L94.0107 133.611C91.3044 130.71 91.3213 126.163 94.1132 123.281C96.9053 120.399 101.449 120.239 104.435 122.852L104.719 123.113L114.945 133.02L139.266 104.166Z" fill="black"/>
<path d="M144 40L144.386 40.0098C148.349 40.2105 151.5 43.4872 151.5 47.5C151.5 51.5128 148.349 54.7895 144.386 54.9902L144 55L44 55C39.8579 55 36.5 51.6421 36.5 47.5C36.5 43.3579 39.8579 40 44 40L144 40Z" fill="black"/>
<path d="M127 72.5L127.386 72.5098C131.349 72.7105 134.5 75.9872 134.5 80C134.5 84.0128 131.349 87.2895 127.386 87.4902L127 87.5L44 87.5C39.8579 87.5 36.5 84.1421 36.5 80C36.5 75.8579 39.8579 72.5 44 72.5L127 72.5Z" fill="black"/>
<path d="M81 105.5L81.3857 105.51C85.3486 105.711 88.5 108.987 88.5 113C88.5 117.013 85.3486 120.289 81.3857 120.49L81 120.5L44 120.5C39.8579 120.5 36.5 117.142 36.5 113C36.5 108.858 39.8579 105.5 44 105.5L81 105.5Z" fill="black"/>
<path d="M170 29C170 21.8203 164.18 16 157 16H29C21.8203 16 16 21.8203 16 29V157C16 164.18 21.8203 170 29 170H157C164.18 170 170 164.18 170 157V29ZM186 157C186 173.016 173.016 186 157 186H29C12.9837 186 8.05327e-09 173.016 0 157V29C2.06176e-06 12.9837 12.9837 8.05326e-09 29 0H157C173.016 2.06176e-06 186 12.9837 186 29V157Z" fill="black"/>
<path d="M231.142 50.748H290.378V66.324H249.668V85.794H284.95V100.19H249.668V135H231.142V50.748ZM309.467 104.556C309.467 106.995 309.703 109.394 310.175 111.754C310.647 114.035 311.434 116.12 312.535 118.008C313.715 119.817 315.249 121.273 317.137 122.374C319.025 123.475 321.385 124.026 324.217 124.026C327.049 124.026 329.409 123.475 331.297 122.374C333.264 121.273 334.798 119.817 335.899 118.008C337.079 116.12 337.905 114.035 338.377 111.754C338.849 109.394 339.085 106.995 339.085 104.556C339.085 102.117 338.849 99.718 338.377 97.358C337.905 94.998 337.079 92.9133 335.899 91.104C334.798 89.2947 333.264 87.8393 331.297 86.738C329.409 85.558 327.049 84.968 324.217 84.968C321.385 84.968 319.025 85.558 317.137 86.738C315.249 87.8393 313.715 89.2947 312.535 91.104C311.434 92.9133 310.647 94.998 310.175 97.358C309.703 99.718 309.467 102.117 309.467 104.556ZM292.711 104.556C292.711 99.6787 293.459 95.2733 294.953 91.34C296.448 87.328 298.572 83.9453 301.325 81.192C304.079 78.36 307.383 76.1967 311.237 74.702C315.092 73.1287 319.419 72.342 324.217 72.342C329.016 72.342 333.343 73.1287 337.197 74.702C341.131 76.1967 344.474 78.36 347.227 81.192C349.981 83.9453 352.105 87.328 353.599 91.34C355.094 95.2733 355.841 99.6787 355.841 104.556C355.841 109.433 355.094 113.839 353.599 117.772C352.105 121.705 349.981 125.088 347.227 127.92C344.474 130.673 341.131 132.797 337.197 134.292C333.343 135.787 329.016 136.534 324.217 136.534C319.419 136.534 315.092 135.787 311.237 134.292C307.383 132.797 304.079 130.673 301.325 127.92C298.572 125.088 296.448 121.705 294.953 117.772C293.459 113.839 292.711 109.433 292.711 104.556ZM362.016 73.994H377.946V85.322H378.182C378.969 83.434 380.031 81.7033 381.368 80.13C382.705 78.478 384.239 77.1013 385.97 76C387.701 74.82 389.549 73.9153 391.516 73.286C393.483 72.6567 395.528 72.342 397.652 72.342C398.753 72.342 399.973 72.5387 401.31 72.932V88.508C400.523 88.3507 399.579 88.2327 398.478 88.154C397.377 87.9967 396.315 87.918 395.292 87.918C392.224 87.918 389.628 88.4293 387.504 89.452C385.38 90.4747 383.649 91.8907 382.312 93.7C381.053 95.4307 380.149 97.476 379.598 99.836C379.047 102.196 378.772 104.753 378.772 107.506V135H362.016V73.994ZM408.351 73.994H424.163V82.254H424.399C426.602 79.1073 429.237 76.6687 432.305 74.938C435.452 73.2073 439.031 72.342 443.043 72.342C446.898 72.342 450.399 73.0893 453.545 74.584C456.771 76.0787 459.209 78.714 460.861 82.49C462.671 79.8153 465.109 77.4553 468.177 75.41C471.324 73.3647 475.021 72.342 479.269 72.342C482.495 72.342 485.484 72.7353 488.237 73.522C490.991 74.3087 493.351 75.5673 495.317 77.298C497.284 79.0287 498.818 81.31 499.919 84.142C501.021 86.8953 501.571 90.2387 501.571 94.172V135H484.815V100.426C484.815 98.3807 484.737 96.4533 484.579 94.644C484.422 92.8347 483.989 91.2613 483.281 89.924C482.573 88.5867 481.511 87.5247 480.095 86.738C478.758 85.9513 476.909 85.558 474.549 85.558C472.189 85.558 470.262 86.03 468.767 86.974C467.351 87.8393 466.211 89.0193 465.345 90.514C464.559 91.93 464.008 93.582 463.693 95.47C463.457 97.2793 463.339 99.128 463.339 101.016V135H446.583V100.78C446.583 98.9707 446.544 97.2007 446.465 95.47C446.387 93.6607 446.033 92.0087 445.403 90.514C444.853 89.0193 443.869 87.8393 442.453 86.974C441.116 86.03 439.11 85.558 436.435 85.558C435.649 85.558 434.587 85.7547 433.249 86.148C431.991 86.4627 430.732 87.1313 429.473 88.154C428.293 89.098 427.271 90.514 426.405 92.402C425.54 94.2113 425.107 96.6107 425.107 99.6V135H408.351V73.994ZM539.007 102.432H560.837L550.217 71.516H549.981L539.007 102.432ZM540.777 50.748H559.775L591.281 135H572.047L565.675 116.238H534.169L527.561 135H508.917L540.777 50.748ZM597.956 73.994H613.886V82.49H614.24C616.364 78.95 619.117 76.3933 622.5 74.82C625.883 73.168 629.344 72.342 632.884 72.342C637.368 72.342 641.026 72.9713 643.858 74.23C646.769 75.41 649.05 77.1013 650.702 79.304C652.354 81.428 653.495 84.0633 654.124 87.21C654.832 90.278 655.186 93.7 655.186 97.476V135H638.43V100.544C638.43 95.5093 637.643 91.7727 636.07 89.334C634.497 86.8167 631.704 85.558 627.692 85.558C623.129 85.558 619.825 86.9347 617.78 89.688C615.735 92.3627 614.712 96.8073 614.712 103.022V135H597.956V73.994ZM690.323 73.994H702.595V85.204H690.323V115.412C690.323 118.244 690.795 120.132 691.739 121.076C692.683 122.02 694.571 122.492 697.403 122.492C698.347 122.492 699.252 122.453 700.117 122.374C700.983 122.295 701.809 122.177 702.595 122.02V135C701.179 135.236 699.606 135.393 697.875 135.472C696.145 135.551 694.453 135.59 692.801 135.59C690.205 135.59 687.727 135.393 685.367 135C683.086 134.685 681.041 134.017 679.231 132.994C677.501 131.971 676.124 130.516 675.101 128.628C674.079 126.74 673.567 124.262 673.567 121.194V85.204H663.419V73.994H673.567V55.704H690.323V73.994ZM728.976 64.554H712.22V50.748H728.976V64.554ZM712.22 73.994H728.976V135H712.22V73.994ZM784.886 95.47C783.784 88.4687 779.654 84.968 772.496 84.968C769.821 84.968 767.579 85.5973 765.77 86.856C763.96 88.036 762.466 89.6093 761.286 91.576C760.184 93.464 759.398 95.588 758.926 97.948C758.454 100.229 758.218 102.511 758.218 104.792C758.218 106.995 758.454 109.237 758.926 111.518C759.398 113.799 760.145 115.884 761.168 117.772C762.269 119.581 763.724 121.076 765.534 122.256C767.343 123.436 769.546 124.026 772.142 124.026C776.154 124.026 779.222 122.925 781.346 120.722C783.548 118.441 784.925 115.412 785.476 111.636H801.642C800.54 119.739 797.394 125.914 792.202 130.162C787.01 134.41 780.362 136.534 772.26 136.534C767.697 136.534 763.488 135.787 759.634 134.292C755.858 132.719 752.632 130.555 749.958 127.802C747.283 125.049 745.198 121.784 743.704 118.008C742.209 114.153 741.462 109.945 741.462 105.382C741.462 100.662 742.13 96.296 743.468 92.284C744.884 88.1933 746.929 84.6927 749.604 81.782C752.278 78.7927 755.543 76.472 759.398 74.82C763.252 73.168 767.658 72.342 772.614 72.342C776.232 72.342 779.694 72.814 782.998 73.758C786.38 74.702 789.37 76.1573 791.966 78.124C794.64 80.012 796.804 82.4113 798.456 85.322C800.108 88.154 801.052 91.5367 801.288 95.47H784.886Z" fill="black"/>
</svg>
