<?xml version="1.0" encoding="UTF-8" standalone="no"?>
<!-- Created with Inkscape (http://www.inkscape.org/) -->

<svg
   width="112.87857mm"
   height="25.888292mm"
   viewBox="0 0 112.87857 25.888292"
   version="1.1"
   id="svg1"
   xml:space="preserve"
   inkscape:version="1.4 (e7c3feb1, 2024-10-09)"
   sodipodi:docname="logo.svg"
   xmlns:inkscape="http://www.inkscape.org/namespaces/inkscape"
   xmlns:sodipodi="http://sodipodi.sourceforge.net/DTD/sodipodi-0.dtd"
   xmlns="http://www.w3.org/2000/svg"
   xmlns:svg="http://www.w3.org/2000/svg"><sodipodi:namedview
     id="namedview1"
     pagecolor="#ffffff"
     bordercolor="#000000"
     borderopacity="0.25"
     inkscape:showpageshadow="2"
     inkscape:pageopacity="0.0"
     inkscape:pagecheckerboard="0"
     inkscape:deskcolor="#d1d1d1"
     inkscape:document-units="mm"
     inkscape:zoom="0.89887065"
     inkscape:cx="376.02741"
     inkscape:cy="-109.58195"
     inkscape:window-width="1744"
     inkscape:window-height="1186"
     inkscape:window-x="1207"
     inkscape:window-y="25"
     inkscape:window-maximized="0"
     inkscape:current-layer="layer1" /><defs
     id="defs1" /><g
     inkscape:label="Layer 1"
     inkscape:groupmode="layer"
     id="layer1"
     transform="translate(-5.6654287,-7.2190786)"><path
       style="fill:#000000;stroke-width:0.533193"
       d="m 8.0636857,32.772701 c -0.864679,-0.4102 -1.653794,-1.18877 -2.07851,-2.05072 l -0.319747,-0.64892 v -9.87518 c 0,-9.789227 0.0026,-9.880851 0.301521,-10.5272784 0.431622,-0.93347 1.208858,-1.731276 2.062646,-2.117244 l 0.73946,-0.33428 h 9.8751793 c 9.072204,0 9.919208,0.01989 10.41665,0.24488 0.938494,0.424432 1.607554,1.064104 2.05998,1.969485 l 0.431641,0.8637894 -0.0014,9.887918 -0.0014,9.88791 -0.329169,0.70537 c -0.343174,0.73538 -1.15322,1.56627 -1.952099,2.00232 -0.435997,0.23798 -1.130229,0.25724 -10.483172,0.29072 l -10.0162533,0.0359 z m 20.3823803,-1.88869 c 0.270021,-0.13566 0.635049,-0.46236 0.811175,-0.72601 l 0.320229,-0.47935 v -9.4381 c 0,-10.223308 0.031,-9.800572 -0.773813,-10.5526784 l -0.377399,-0.352686 -9.687527,-0.03636 c -9.2867423,-0.03487 -9.7055033,-0.02533 -10.1220403,0.230219 -0.932929,0.5723834 -0.905746,0.251352 -0.905162,10.6901554 5.12e-4,9.16147 0.0085,9.44376 0.280858,9.89042 0.154182,0.25287 0.487232,0.58593 0.740112,0.74011 0.446603,0.2723 0.728635,0.28034 9.8411993,0.28064 8.650637,2.8e-4 9.419664,-0.0189 9.872368,-0.24636 z m -8.502523,-3.87931 c -1.190159,-1.13096 -1.373008,-1.36605 -1.371539,-1.76342 0.0022,-0.59841 0.429295,-1.02279 1.0293,-1.02279 0.374657,0 0.609932,0.14847 1.229579,0.77591 0.421447,0.42675 0.808888,0.77591 0.860978,0.77591 0.05209,0 0.608407,-0.62826 1.23626,-1.39614 2.541756,-3.10861 2.89118,-3.36238 3.62267,-2.63089 0.5751,0.5751 0.458283,0.92781 -0.807613,2.43844 -1.120954,1.33767 -2.529465,2.95013 -3.266928,3.73996 -0.635063,0.68016 -0.985485,0.55329 -2.532707,-0.91698 z m -8.963249,-3.39486 c -0.395468,-0.42096 -0.400028,-1.09716 -0.0098,-1.45033 0.272625,-0.24672 0.545319,-0.26874 3.327704,-0.26874 3.014928,0 3.032151,0.002 3.300427,0.33305 0.3667,0.45285 0.338782,0.95088 -0.07659,1.36625 -0.345526,0.34553 -0.352619,0.34627 -3.290647,0.34627 -2.895316,0 -2.949486,-0.005 -3.251115,-0.3265 z m -0.02459,-4.61108 c -0.33752,-0.33753 -0.365166,-0.94729 -0.06254,-1.37936 l 0.21961,-0.31353 h 6.402868 6.402868 l 0.21961,0.31353 c 0.297536,0.4248 0.278276,1.14146 -0.03838,1.42803 -0.231955,0.20991 -0.893879,0.23347 -6.55994,0.23347 -6.113854,0 -6.310375,-0.008 -6.584101,-0.28214 z m 0.423222,-4.33231 c -0.726091,-0.26698 -0.954473,-1.20263 -0.423222,-1.73388 0.275097,-0.275095 0.470247,-0.282144 7.807742,-0.282144 7.362514,0 7.531163,0.0061 7.782582,0.283964 0.388499,0.42929 0.331095,1.10769 -0.127076,1.50178 l -0.384064,0.33037 -7.222175,-0.0111 c -3.972196,-0.006 -7.317401,-0.0462 -7.433787,-0.0889 z m 38.288427,11.67202 c -1.418352,-0.30133 -2.503251,-1.10754 -3.125509,-2.32264 -0.499847,-0.97607 -0.602908,-2.66654 -0.234157,-3.84079 0.352921,-1.12382 1.48537,-2.28765 2.637482,-2.71055 2.291728,-0.84122 4.81129,0.11175 5.841355,2.20938 0.353683,0.72024 0.395863,0.95651 0.395767,2.2169 -9.6e-5,1.2604 -0.04074,1.48777 -0.381275,2.13351 -0.932342,1.76791 -3.101766,2.74586 -5.133663,2.31419 z m 2.221186,-2.22468 c 0.739278,-0.43512 1.036677,-1.09308 1.036677,-2.29356 0,-1.21934 -0.276295,-1.84024 -1.051276,-2.36251 -0.650175,-0.43815 -1.759579,-0.43785 -2.419443,5.4e-4 -0.671754,0.44641 -1.114187,1.38428 -1.114187,2.36184 0,2.09266 1.853715,3.2909 3.548229,2.29356 z m 61.063661,2.14718 c -1.01527,-0.2801 -1.79719,-0.83384 -2.36107,-1.67206 -0.61865,-0.91965 -0.7845,-1.63143 -0.71089,-3.05082 0.13161,-2.53732 1.66298,-4.14742 4.12148,-4.33336 1.88132,-0.14228 3.35526,0.60712 4.10532,2.0873 0.54244,1.07044 0.51285,1.11746 -0.70303,1.11746 -1.01588,0 -1.05818,-0.0137 -1.29874,-0.42094 -0.48495,-0.82096 -1.93167,-1.11932 -2.81516,-0.58058 -0.77896,0.475 -1.11381,1.20331 -1.11381,2.42257 0,0.93541 0.0494,1.14306 0.3973,1.66872 0.48772,0.73699 1.17288,1.05584 2.08128,0.96856 0.69528,-0.0668 1.27725,-0.40773 1.55156,-0.90892 0.14514,-0.26519 0.31098,-0.31313 1.22019,-0.35269 0.57872,-0.0252 1.07283,-0.0249 1.09802,5.4e-4 0.13108,0.13288 -0.43141,1.33494 -0.85776,1.83303 -1.01083,1.18093 -2.99632,1.69516 -4.71469,1.22109 z m -74.91029,-6.12792 v -6.21296 h 3.808997 3.808998 v 0.98752 0.98751 h -2.684883 -2.684883 l 0.03972,1.65763 0.03972,1.65761 2.433526,0.0386 2.433525,0.0386 v 0.98419 0.98419 h -2.474512 -2.474512 l 0.01855,2.50406 0.01855,2.50406 -1.141438,0.041 -1.141439,0.041 z m 18.339617,1.68125 v -4.5203 l 1.093323,0.0412 1.093319,0.0412 -0.002,0.45849 c -0.002,0.533 0.0745,0.57154 0.32776,0.16602 0.37116,-0.59432 2.36748,-1.12979 2.62978,-0.70538 0.0444,0.0719 0.0391,0.57978 -0.0119,1.1286 l -0.0927,0.99784 h -0.65205 c -0.82757,0 -1.5404,0.37952 -1.87114,0.99621 -0.2241,0.41787 -0.25777,0.83572 -0.25777,3.19854 v 2.71785 h -1.128594 -1.128593 z m 6.348332,0.006 v -4.51437 h 1.12859 1.12859 v 0.58332 0.58333 l 0.29549,-0.37565 c 0.4854,-0.61708 1.26715,-0.93207 2.31329,-0.93207 1.26258,0 2.13139,0.4127 2.59404,1.23223 0.12677,0.22457 0.19343,0.19774 0.67832,-0.27309 0.29575,-0.28718 0.77375,-0.62047 1.06223,-0.74064 0.69456,-0.28935 2.25616,-0.28458 2.87436,0.009 0.63934,0.30339 1.28262,1.05824 1.45779,1.71064 0.0784,0.29198 0.14924,2.02273 0.15743,3.84611 l 0.0149,3.31524 -1.06848,0.0412 -1.06848,0.0412 -5.3e-4,-2.79214 c -0.001,-3.04691 -0.10336,-3.68971 -0.65793,-4.12593 -0.47951,-0.37719 -1.37877,-0.37845 -1.99491,-0.003 -0.78038,0.47579 -0.87322,0.90987 -0.87322,4.08299 v 2.82585 h -1.12883 -1.12859 v -2.9765 c 0,-2.39472 -0.0427,-3.06647 -0.21841,-3.43677 -0.50599,-1.06627 -2.24106,-1.05316 -2.97008,0.0225 -0.23818,0.35142 -0.27284,0.72699 -0.31313,3.39299 l -0.0453,2.99782 h -1.11856 -1.11855 z m 14.81611,4.34352 c 0.002,-0.10001 1.00692,-2.87988 2.2335,-6.17748 l 2.23014,-5.99565 h 1.45811 1.45811 l 2.27918,6.13672 2.27918,6.13672 -1.1272,0.0414 c -0.61997,0.0228 -1.2064,0.011 -1.30318,-0.0262 -0.0968,-0.0371 -0.38539,-0.70645 -0.64135,-1.48736 l -0.46539,-1.41984 h -2.49758 -2.49757 l -0.48163,1.44601 -0.48164,1.44601 -1.22301,0.0407 c -0.92644,0.0309 -1.2222,-0.003 -1.21967,-0.14107 z m 7.61779,-4.87255 c 0.007,-0.22721 -1.61159,-5.11393 -1.69356,-5.11393 -0.0479,0 -0.46653,1.17444 -0.93025,2.60987 l -0.84314,2.60988 h 1.7319 c 0.95255,0 1.73332,-0.0476 1.73505,-0.1058 z m 5.35768,0.52903 v -4.51437 h 1.12859 1.12859 v 0.58072 0.58071 l 0.57167,-0.51648 c 0.72955,-0.6591 1.0781,-0.78602 2.15856,-0.78602 1.50076,0 2.5344,0.74563 2.91046,2.09951 0.078,0.2807 0.14212,1.98634 0.14255,3.79033 l 5.4e-4,3.27997 h -1.1286 -1.12858 v -2.94151 c 0,-1.78897 -0.0613,-3.11725 -0.15637,-3.39006 -0.40564,-1.16361 -2.41084,-1.14988 -3.05068,0.0209 -0.21073,0.38559 -0.2563,0.90873 -0.29475,3.38339 l -0.0455,2.92729 h -1.11838 -1.11838 z m 11.829551,4.29292 c -0.85748,-0.26397 -1.45557,-0.94587 -1.65815,-1.89048 -0.0853,-0.39789 -0.15515,-1.70431 -0.15515,-2.90314 v -2.17971 h -0.564301 -0.56429 v -0.91698 -0.91698 h 0.56429 0.564301 v -1.12857 -1.1286 h 1.12859 1.12859 v 1.1286 1.12859 h 1.05806 1.05805 v 0.91698 0.91698 h -1.05805 -1.05806 v 2.12312 c 0,2.82761 0.21491,3.23415 1.62274,3.0698 l 0.49337,-0.0576 v 1.02972 1.02973 l -0.95225,-0.01 c -0.52373,-0.005 -1.24722,-0.10064 -1.60774,-0.21162 z m 4.1097,0.15091 c -0.001,-0.0388 -0.003,-2.05439 -0.005,-4.4791 l -0.003,-4.40856 1.13317,-0.041 1.13316,-0.041 v 4.52007 4.52007 h -1.12858 c -0.62073,0 -1.12954,-0.0317 -1.1307,-0.0705 z m 0.0485,-10.4245 c -0.31086,-0.26739 -0.39261,-0.45834 -0.39261,-0.91698 0,-0.83727 0.54259,-1.35518 1.41974,-1.35518 0.82192,0 1.32478,0.5044 1.32478,1.32883 0,1.15726 -1.43436,1.73257 -2.35191,0.94333 z"
       id="path1" /></g></svg>
